name C:\Users\r0593348\3dpredictsim\Results\Batchsim_tmt_linear\Pog_s1_tmt_bCst_d02_k1000_ig24_pas.mot
datacolumns 128
datarows 4
range 1.10100721 1.13403742
endheader
time	pelvis_tilt	pelvis_list	pelvis_rotation	pelvis_tx	pelvis_ty	pelvis_tz	hip_flexion_l	hip_adduction_l	hip_rotation_l	hip_flexion_r	hip_adduction_r	hip_rotation_r	knee_angle_l	knee_angle_r	ankle_angle_l	ankle_angle_r	subtalar_angle_l	subtalar_angle_r	tmt_angle_l	tmt_angle_r	mtp_angle_l	mtp_angle_r	lumbar_extension	lumbar_bending	lumbar_rotation	arm_flex_l	arm_add_l	arm_rot_l	arm_flex_r	arm_add_r	arm_rot_r	elbow_flex_l	elbow_flex_r	pro_sup_l	pro_sup_r	glut_med1_l/activation	glut_med2_l/activation	glut_med3_l/activation	glut_min1_l/activation	glut_min2_l/activation	glut_min3_l/activation	semimem_l/activation	semiten_l/activation	bifemlh_l/activation	bifemsh_l/activation	sar_l/activation	add_long_l/activation	add_brev_l/activation	add_mag1_l/activation	add_mag2_l/activation	add_mag3_l/activation	tfl_l/activation	pect_l/activation	grac_l/activation	glut_max1_l/activation	glut_max2_l/activation	glut_max3_l/activation	iliacus_l/activation	psoas_l/activation	quad_fem_l/activation	gem_l/activation	peri_l/activation	rect_fem_l/activation	vas_med_l/activation	vas_int_l/activation	vas_lat_l/activation	med_gas_l/activation	lat_gas_l/activation	soleus_l/activation	tib_post_l/activation	flex_dig_l/activation	flex_hal_l/activation	tib_ant_l/activation	per_brev_l/activation	per_long_l/activation	per_tert_l/activation	ext_dig_l/activation	ext_hal_l/activation	ercspn_l/activation	intobl_l/activation	extobl_l/activation	glut_med1_r/activation	glut_med2_r/activation	glut_med3_r/activation	glut_min1_r/activation	glut_min2_r/activation	glut_min3_r/activation	semimem_r/activation	semiten_r/activation	bifemlh_r/activation	bifemsh_r/activation	sar_r/activation	add_long_r/activation	add_brev_r/activation	add_mag1_r/activation	add_mag2_r/activation	add_mag3_r/activation	tfl_r/activation	pect_r/activation	grac_r/activation	glut_max1_r/activation	glut_max2_r/activation	glut_max3_r/activation	iliacus_r/activation	psoas_r/activation	quad_fem_r/activation	gem_r/activation	peri_r/activation	rect_fem_r/activation	vas_med_r/activation	vas_int_r/activation	vas_lat_r/activation	med_gas_r/activation	lat_gas_r/activation	soleus_r/activation	tib_post_r/activation	flex_dig_r/activation	flex_hal_r/activation	tib_ant_r/activation	per_brev_r/activation	per_long_r/activation	per_tert_r/activation	ext_dig_r/activation	ext_hal_r/activation	ercspn_r/activation	intobl_r/activation	extobl_r/activation	
          1.10100721	         -2.92680974	         -2.44707917	          5.93737760	          1.37625901	          0.85571888	         -0.00324731	        -18.73609558	         -2.06455836	          7.33456105	         31.96431151	          3.20735824	         -3.06097252	         -6.87078965	        -15.11224526	          0.54463602	          6.26154332	         10.71880603	         -3.01639159	          1.03514013	          0.03210049	         22.20713271	         -0.11856751	         -2.21647134	          0.93332370	         -1.98578292	          7.46147279	        -13.45626529	         16.44307034	         -9.68354888	        -13.56845466	          5.71177654	         39.40603681	         15.02525068	         86.51662706	         86.51662706	          0.25214963	          0.09808797	          0.06792870	          0.30556577	          0.19871654	          0.09869258	          0.05000153	          0.05000028	          0.05000021	          0.07901024	          0.11106286	          0.08738682	          0.05000045	          0.05000049	          0.05000092	          0.05000102	          0.32665173	          0.05001509	          0.05000065	          0.05000673	          0.05000312	          0.05000163	          0.42344371	          0.66852925	          0.05000021	          0.05000081	          0.05000028	          0.23612933	          0.10295212	          0.05976157	          0.05293732	          0.32077504	          0.43595044	          0.29395990	          0.28079750	          0.29240956	          0.37791444	          0.05000003	          0.06654014	          0.17961600	          0.05000023	          0.05000006	          0.05000018	          0.05000002	          0.05000002	          0.05000004	          0.05000045	          0.05000037	          0.05000214	          0.05000044	          0.05000045	          0.05000096	          0.05917485	          0.05916044	          0.31324760	          0.05000042	          0.05000079	          0.11197557	          0.17275415	          0.20303473	          0.17399630	          0.12461884	          0.05000526	          0.05518510	          0.05917549	          0.05000179	          0.08053118	          0.12007039	          0.05325840	          0.05786355	          0.20479105	          0.05005800	          0.05000268	          0.05531686	          0.13231129	          0.13416054	          0.11500974	          0.05109942	          0.05000113	          0.05917502	          0.05000009	          0.05000182	          0.05004406	          0.53224893	          0.37048644	          0.21916613	          0.32280085	          0.56787128	          0.28251963	          0.06849514	          0.09754214	          0.09809301	
          1.11201728	         -2.91795468	         -2.54773809	          6.20680058	          1.39303435	          0.85460232	         -0.00302836	        -18.51643777	         -2.38274270	          7.14821426	         31.36071323	          3.61420580	         -2.88124199	         -9.00633982	        -15.04355955	         -0.35437473	          5.70462723	         11.75762263	         -3.52283213	          0.97988686	          0.04244013	         23.29017784	         -0.10583823	         -1.99951588	          1.17030384	         -2.07478585	          7.25901802	        -13.46957186	         16.67804708	        -10.80768334	        -13.56002664	          5.58374108	         40.58666836	         14.91668825	         86.51662706	         86.51662706	          0.21305408	          0.08287952	          0.05894829	          0.25818815	          0.16790574	          0.08339042	          0.05000382	          0.05000048	          0.05000059	          0.06675978	          0.09384299	          0.17423167	          0.10553901	          0.06814475	          0.05002465	          0.05000168	          0.27600486	          0.10761864	          0.05427072	          0.05000192	          0.05000150	          0.05000151	          0.35778908	          0.60715584	          0.05002232	          0.06217456	          0.05917538	          0.19951765	          0.13670987	          0.16260961	          0.16260964	          0.27103906	          0.36835659	          0.24838159	          0.23726038	          0.24707220	          0.31931944	          0.05000003	          0.05622322	          0.15531088	          0.05000014	          0.05000004	          0.05000018	          0.05532145	          0.07003370	          0.05000010	          0.05000064	          0.05000087	          0.05000071	          0.05000078	          0.05000090	          0.05000060	          0.05000010	          0.05000019	          0.27462699	          0.05000027	          0.05000408	          0.09461421	          0.14596895	          0.28358510	          0.20201314	          0.12155240	          0.05000028	          0.05000310	          0.05000104	          0.05917486	          0.08182123	          0.13812522	          0.05000023	          0.05000097	          0.52777185	          0.11617429	          0.09994218	          0.07003368	          0.21302604	          0.21643823	          0.18731447	          0.05000000	          0.05000002	          0.05000000	          0.05000023	          0.05918085	          0.05000086	          0.61094095	          0.31304305	          0.21694025	          0.51144305	          0.60583305	          0.26777471	          0.05787503	          0.08241830	          0.08288376	
          1.12302735	         -2.90477043	         -2.64851033	          6.44861644	          1.41009335	          0.85348296	         -0.00281947	        -18.20740159	         -2.68949604	          6.95214478	         30.61919623	          3.95606884	         -2.62650304	        -11.28932617	        -15.48998755	         -1.43180941	          5.10987161	         12.74162081	         -4.05992891	          0.90761285	         -0.03376023	         24.19947010	         -0.15276966	         -1.76117421	          1.41168076	         -2.15198762	          6.97138204	        -13.48237226	         16.84631851	        -11.93899776	        -13.55481544	          5.50703792	         41.72897671	         14.84176878	         86.51662706	         86.51662706	          0.30154233	          0.07002914	          0.05000087	          0.21815653	          0.14187213	          0.07046083	          0.05000238	          0.05000051	          0.05000053	          0.05640877	          0.07929299	          0.17019408	          0.19403064	          0.05917563	          0.05917428	          0.05914785	          0.23321137	          0.09095212	          0.05439750	          0.05034330	          0.05116849	          0.05917325	          0.30231416	          0.55887115	          0.05917494	          0.05253526	          0.05000035	          0.16858257	          0.13739747	          0.13739781	          0.13739770	          0.22901461	          0.31124313	          0.20987017	          0.20047334	          0.20876397	          0.26980927	          0.05000002	          0.05000095	          0.20193375	          0.05000010	          0.05000006	          0.05000015	          0.06558060	          0.05917503	          0.05000015	          0.30099683	          0.05000022	          0.35636092	          0.05000070	          0.05000050	          0.29380341	          0.08353041	          0.05000124	          0.23204724	          0.05000028	          0.05000068	          0.08288453	          0.20879693	          0.23961591	          0.19153457	          0.15893079	          0.05000070	          0.05950704	          0.14507423	          0.05000026	          0.06913508	          0.11694476	          0.05351671	          0.05000052	          0.44594118	          0.09816168	          0.19707928	          0.05917502	          0.17999664	          0.18287990	          0.15827164	          0.05917522	          0.05917527	          0.05917510	          0.05917493	          0.05000520	          0.05917473	          0.51621493	          0.40954482	          0.20746033	          0.43214461	          0.60404857	          0.22625647	          0.05299505	          0.09622010	          0.07003269	
          1.13403742	         -2.88934242	         -2.74667910	          6.65567778	          1.42723974	          0.85237445	         -0.00259358	        -17.78839138	         -2.97872308	          6.75153245	         29.75889656	          4.25852772	         -2.35558542	        -13.73059310	        -15.98201916	         -2.66050291	          4.75495588	         13.65283230	         -4.60798312	          0.81364660	         -0.01715511	         24.83748906	         -0.17124874	         -1.52131461	          1.65325480	         -2.21984655	          6.62957160	        -13.50071793	         16.96681101	        -13.02586813	        -13.55207184	          5.49718704	         42.81473187	         14.76590988	         86.51662706	         86.51662706	          0.25478867	          0.05917120	          0.05000004	          0.28357122	          0.11987502	          0.05953597	          0.05000307	          0.05000018	          0.05000016	          0.05000020	          0.06699930	          0.16784441	          0.16394665	          0.05000080	          0.05000087	          0.05000056	          0.24640569	          0.07685159	          0.05000042	          0.05000092	          0.05000060	          0.05000041	          0.25544057	          0.50349022	          0.05000008	          0.05000033	          0.05000017	          0.14244396	          0.11609467	          0.11609469	          0.11609467	          0.19350602	          0.26298507	          0.17732992	          0.16939011	          0.17639538	          0.22797561	          0.08641716	          0.14829489	          0.17062472	          0.05000124	          0.15936601	          0.05000138	          0.09393688	          0.05000001	          0.05000005	          0.35340554	          0.32040635	          0.42211317	          0.21637870	          0.20317770	          0.24824989	          0.07146644	          0.11372930	          0.19606847	          0.07003523	          0.05000155	          0.07003340	          0.17642313	          0.20246400	          0.17089320	          0.17743677	          0.05000032	          0.05028107	          0.12258471	          0.24266974	          0.18774236	          0.16426795	          0.05000012	          0.05000015	          0.37679835	          0.08294214	          0.16652275	          0.05000007	          0.15208883	          0.21463471	          0.15792159	          0.05000015	          0.05000022	          0.05000004	          0.05000000	          0.05000049	          0.05000027	          0.64578768	          0.37500328	          0.19112481	          0.67251768	          0.67140792	          0.36380364	          0.07987479	          0.08130131	          0.05917418	
